<svg width="27" height="27" viewBox="0 0 27 27" fill="none" xmlns="http://www.w3.org/2000/svg">
<path d="M13.5 27C14.523 27 15.5041 26.6444 16.2274 26.0115C16.9508 25.3786 17.3571 24.5202 17.3571 23.6252H9.64286C9.64286 24.5202 10.0492 25.3786 10.7726 26.0115C11.4959 26.6444 12.477 27 13.5 27ZM15.4189 1.85594C15.4458 1.62131 15.4163 1.38435 15.3321 1.16034C15.2479 0.936334 15.111 0.73025 14.9302 0.555382C14.7494 0.380513 14.5287 0.240742 14.2824 0.145082C14.036 0.0494233 13.7695 0 13.5 0C13.2305 0 12.964 0.0494233 12.7176 0.145082C12.4713 0.240742 12.2506 0.380513 12.0698 0.555382C11.889 0.73025 11.7521 0.936334 11.6679 1.16034C11.5837 1.38435 11.5542 1.62131 11.5811 1.85594C9.40124 2.24387 7.44163 3.27903 6.03405 4.78612C4.62647 6.29321 3.85742 8.17962 3.85714 10.1259C3.85714 11.9787 2.89286 20.2504 0 21.9378H27C24.1071 20.2504 23.1429 11.9787 23.1429 10.1259C23.1429 6.0424 19.8257 2.63383 15.4189 1.85594Z" fill="white"/>
</svg>
