<svg width="176" height="176" viewBox="0 0 176 176" fill="none" xmlns="http://www.w3.org/2000/svg">
<rect width="176" height="176" fill="#159A9C"/>
<path d="M116.513 41.86C115.962 41.3094 115.215 41 114.436 41C113.657 41 112.91 41.3094 112.359 41.86L102.684 51.5361L124.461 73.3144L134.137 63.6443C134.411 63.3714 134.628 63.0473 134.776 62.6904C134.924 62.3335 135 61.9509 135 61.5646C135 61.1782 134.924 60.7956 134.776 60.4387C134.628 60.0818 134.411 59.7577 134.137 59.4848L116.513 41.86ZM120.308 77.468L98.5302 55.6896L60.3444 93.8766H61.5605C62.3395 93.8766 63.0866 94.1861 63.6375 94.737C64.1884 95.2879 64.4978 96.035 64.4978 96.8141V99.7516H67.4352C68.2142 99.7516 68.9614 100.061 69.5122 100.612C70.0631 101.163 70.3726 101.91 70.3726 102.689V105.627H73.3099C74.089 105.627 74.8361 105.936 75.387 106.487C75.9378 107.038 76.2473 107.785 76.2473 108.564V111.501H79.1847C79.9637 111.501 80.7109 111.811 81.2617 112.362C81.8126 112.913 82.1221 113.66 82.1221 114.439V115.655L120.308 77.468ZM76.4353 121.342C76.3117 121.013 76.248 120.665 76.2473 120.314V117.376H73.3099C72.5309 117.376 71.7838 117.067 71.2329 116.516C70.682 115.965 70.3726 115.218 70.3726 114.439V111.501H67.4352C66.6562 111.501 65.909 111.192 65.3582 110.641C64.8073 110.09 64.4978 109.343 64.4978 108.564V105.627H61.5605C60.7814 105.627 60.0343 105.317 59.4834 104.766C58.9326 104.215 58.6231 103.468 58.6231 102.689V99.7516H55.6857C55.3345 99.751 54.9863 99.6873 54.6576 99.5636L53.6061 100.609C53.3261 100.891 53.1063 101.227 52.9598 101.596L41.2104 130.971C40.9967 131.505 40.9444 132.09 41.0599 132.653C41.1755 133.216 41.4538 133.733 41.8603 134.14C42.2669 134.546 42.7839 134.825 43.3471 134.94C43.9104 135.056 44.4951 135.003 45.0289 134.79L74.4026 123.04C74.7719 122.893 75.1077 122.673 75.3896 122.394L76.4353 121.342Z" fill="white"/>
</svg>
