<svg width="110" height="110" viewBox="0 0 110 110" fill="none" xmlns="http://www.w3.org/2000/svg">
<path d="M55 103.125C42.2365 103.125 29.9957 98.0547 20.9705 89.0295C11.9453 80.0043 6.875 67.7635 6.875 55C6.875 42.2365 11.9453 29.9957 20.9705 20.9705C29.9957 11.9453 42.2365 6.875 55 6.875C67.7635 6.875 80.0043 11.9453 89.0295 20.9705C98.0547 29.9957 103.125 42.2365 103.125 55C103.125 67.7635 98.0547 80.0043 89.0295 89.0295C80.0043 98.0547 67.7635 103.125 55 103.125ZM55 110C69.5869 110 83.5764 104.205 93.8909 93.8909C104.205 83.5764 110 69.5869 110 55C110 40.4131 104.205 26.4236 93.8909 16.1091C83.5764 5.79463 69.5869 0 55 0C40.4131 0 26.4236 5.79463 16.1091 16.1091C5.79463 26.4236 0 40.4131 0 55C0 69.5869 5.79463 83.5764 16.1091 93.8909C26.4236 104.205 40.4131 110 55 110Z" fill="#FF0000"/>
<rect x="11" y="86.0331" width="107" height="10.4042" transform="rotate(-40.8828 11 86.0331)" fill="#FF0000"/>
</svg>
