<svg width="176" height="176" viewBox="0 0 176 176" fill="none" xmlns="http://www.w3.org/2000/svg">
<rect width="176" height="176" fill="#159A9C"/>
<path d="M97.0056 48C97.3913 47.9993 97.7733 48.0737 98.1299 48.219C98.4865 48.3643 98.8105 48.5775 99.0836 48.8466L128.141 77.5501C128.691 78.0938 129 78.8312 129 79.6C129 80.3688 128.691 81.1061 128.141 81.6498C125.323 84.4332 121.848 85.0594 119.318 85.0594C118.279 85.0594 117.351 84.955 116.618 84.8333L98.2207 103.006C98.705 104.934 99.0192 106.899 99.1599 108.88C99.4299 112.951 98.9721 118.663 94.9334 122.652C94.383 123.196 93.6366 123.501 92.8584 123.501C92.0801 123.501 91.3337 123.196 90.7833 122.652L74.1767 106.254L55.498 124.705C54.3534 125.836 48.3424 129.935 47.1977 128.805C46.053 127.674 50.2032 121.73 51.3479 120.605L70.0266 102.154L53.4259 85.7495C52.8756 85.2058 52.5665 84.4684 52.5665 83.6996C52.5665 82.9308 52.8756 82.1935 53.4259 81.6498C57.4645 77.6603 63.2466 77.2022 67.3674 77.4747C69.373 77.6136 71.3626 77.924 73.3138 78.4025L91.7107 60.2352C91.5572 59.3522 91.4787 58.458 91.4759 57.562C91.4759 55.0686 92.1099 51.6358 94.9334 48.8466C95.4835 48.3046 96.2287 48.0002 97.0056 48Z" fill="white"/>
</svg>
