<svg width="28" height="28" viewBox="0 0 28 28" fill="none" xmlns="http://www.w3.org/2000/svg">
<path fill-rule="evenodd" clip-rule="evenodd" d="M5.425 19.36C5.5065 19.2482 5.61219 19.1575 5.73369 19.095C5.85519 19.0325 5.98916 19 6.125 19H10.5C10.7321 19 10.9546 19.0948 11.1187 19.2636C11.2828 19.4324 11.375 19.6613 11.375 19.9C11.375 20.1387 11.2828 20.3676 11.1187 20.5364C10.9546 20.7052 10.7321 20.8 10.5 20.8H6.5625L2.625 26.2H25.375L21.4375 20.8H17.5C17.2679 20.8 17.0454 20.7052 16.8813 20.5364C16.7172 20.3676 16.625 20.1387 16.625 19.9C16.625 19.6613 16.7172 19.4324 16.8813 19.2636C17.0454 19.0948 17.2679 19 17.5 19H21.875C22.0108 19 22.1448 19.0325 22.2663 19.095C22.3878 19.1575 22.4935 19.2482 22.575 19.36L27.825 26.56C27.9225 26.6937 27.9819 26.8527 27.9965 27.0192C28.0111 27.1856 27.9803 27.353 27.9076 27.5025C27.835 27.652 27.7232 27.7777 27.585 27.8656C27.4468 27.9535 27.2875 28 27.125 28H0.875C0.712502 28 0.553215 27.9535 0.414986 27.8656C0.276757 27.7777 0.165048 27.652 0.0923766 27.5025C0.0197053 27.353 -0.0110572 27.1856 0.00353601 27.0192C0.0181292 26.8527 0.0775016 26.6937 0.175 26.56L5.425 19.36Z" fill="#B4BEC9"/>
<path fill-rule="evenodd" clip-rule="evenodd" d="M7 6.85669C7.00013 5.53704 7.38895 4.24546 8.11982 3.13692C8.85068 2.02838 9.89254 1.14998 11.1204 0.607106C12.3482 0.0642374 13.7099 -0.120035 15.042 0.0764009C16.3741 0.272837 17.62 0.841636 18.6303 1.71455C19.6406 2.58746 20.3723 3.7274 20.7377 4.99759C21.103 6.26778 21.0864 7.61426 20.69 8.87546C20.2935 10.1367 19.534 11.259 18.5026 12.1078C17.4711 12.9567 16.2115 13.4959 14.875 13.6609V23.1428C14.875 23.3702 14.7828 23.5882 14.6187 23.7489C14.4546 23.9097 14.2321 24 14 24C13.7679 24 13.5454 23.9097 13.3813 23.7489C13.2172 23.5882 13.125 23.3702 13.125 23.1428V13.6626C11.4327 13.4537 9.87645 12.6467 8.74863 11.3932C7.6208 10.1397 6.99899 8.52761 7 6.85669Z" fill="#B4BEC9"/>
</svg>
