<svg width="27" height="27" viewBox="0 0 27 27" fill="none" xmlns="http://www.w3.org/2000/svg">
<path d="M23.625 1.6875C24.0726 1.6875 24.5018 1.86529 24.8182 2.18176C25.1347 2.49822 25.3125 2.92745 25.3125 3.375V23.625C25.3125 24.0726 25.1347 24.5018 24.8182 24.8182C24.5018 25.1347 24.0726 25.3125 23.625 25.3125H3.375C2.92745 25.3125 2.49822 25.1347 2.18176 24.8182C1.86529 24.5018 1.6875 24.0726 1.6875 23.625V3.375C1.6875 2.92745 1.86529 2.49822 2.18176 2.18176C2.49822 1.86529 2.92745 1.6875 3.375 1.6875H23.625ZM3.375 0C2.47989 0 1.62145 0.355579 0.988515 0.988515C0.355579 1.62145 0 2.47989 0 3.375V23.625C0 24.5201 0.355579 25.3785 0.988515 26.0115C1.62145 26.6444 2.47989 27 3.375 27H23.625C24.5201 27 25.3785 26.6444 26.0115 26.0115C26.6444 25.3785 27 24.5201 27 23.625V3.375C27 2.47989 26.6444 1.62145 26.0115 0.988515C25.3785 0.355579 24.5201 0 23.625 0H3.375Z" fill="#002333"/>
<path d="M13.5 6.75C13.7238 6.75 13.9384 6.83889 14.0966 6.99713C14.2549 7.15536 14.3438 7.36997 14.3438 7.59375V12.6562H19.4062C19.63 12.6562 19.8446 12.7451 20.0029 12.9034C20.1611 13.0616 20.25 13.2762 20.25 13.5C20.25 13.7238 20.1611 13.9384 20.0029 14.0966C19.8446 14.2549 19.63 14.3438 19.4062 14.3438H14.3438V19.4062C14.3438 19.63 14.2549 19.8446 14.0966 20.0029C13.9384 20.1611 13.7238 20.25 13.5 20.25C13.2762 20.25 13.0616 20.1611 12.9034 20.0029C12.7451 19.8446 12.6562 19.63 12.6562 19.4062V14.3438H7.59375C7.36997 14.3438 7.15536 14.2549 6.99713 14.0966C6.83889 13.9384 6.75 13.7238 6.75 13.5C6.75 13.2762 6.83889 13.0616 6.99713 12.9034C7.15536 12.7451 7.36997 12.6562 7.59375 12.6562H12.6562V7.59375C12.6562 7.36997 12.7451 7.15536 12.9034 6.99713C13.0616 6.83889 13.2762 6.75 13.5 6.75Z" fill="#002333"/>
</svg>
