<svg width="176" height="176" viewBox="0 0 176 176" fill="none" xmlns="http://www.w3.org/2000/svg">
<rect width="176" height="176" fill="#159A9C"/>
<path d="M51.5744 106.502C52.2555 107.186 52.7775 108.011 53.1031 108.92C53.4286 109.829 53.5497 110.798 53.4578 111.759C52.9966 116.206 52.1222 120.601 50.8459 124.886C60.0006 122.766 65.5919 120.311 68.1316 119.025C69.5721 118.295 71.231 118.122 72.7909 118.539C77.2629 119.731 81.8719 120.332 86.5 120.324C112.724 120.324 132.438 101.901 132.438 80.9438C132.438 59.9934 112.724 41.5634 86.5 41.5634C60.2762 41.5634 40.5625 59.9934 40.5625 80.9438C40.5625 90.5789 44.6116 99.5182 51.5744 106.502ZM48.3391 132.132C46.7842 132.44 45.2243 132.722 43.66 132.978C42.3475 133.188 41.35 131.823 41.8684 130.603C42.4511 129.228 42.9852 127.834 43.4697 126.422L43.4894 126.356C45.1169 121.63 46.4425 116.196 46.9281 111.135C38.8759 103.062 34 92.4954 34 80.9438C34 55.5697 57.5069 35 86.5 35C115.493 35 139 55.5697 139 80.9438C139 106.318 115.493 126.888 86.5 126.888C81.3002 126.895 76.122 126.219 71.0978 124.879C67.6853 126.605 60.3419 129.749 48.3391 132.132Z" fill="white"/>
<path d="M87 113.714C87 111.214 87.9833 108.815 89.7337 107.047C91.484 105.279 93.858 104.286 96.3333 104.286V94.8571C96.3333 89.8559 98.3 85.0595 101.801 81.5231C105.301 77.9867 110.049 76 115 76C119.951 76 124.699 77.9867 128.199 81.5231C131.7 85.0595 133.667 89.8559 133.667 94.8571V104.286C136.142 104.286 138.516 105.279 140.266 107.047C142.017 108.815 143 111.214 143 113.714V132.571C143 135.072 142.017 137.47 140.266 139.238C138.516 141.007 136.142 142 133.667 142H96.3333C93.858 142 91.484 141.007 89.7337 139.238C87.9833 137.47 87 135.072 87 132.571V113.714ZM115 85.4286C112.525 85.4286 110.151 86.4219 108.4 88.1901C106.65 89.9583 105.667 92.3565 105.667 94.8571V104.286H124.333V94.8571C124.333 92.3565 123.35 89.9583 121.6 88.1901C119.849 86.4219 117.475 85.4286 115 85.4286Z" fill="white"/>
</svg>
