<svg width="28" height="28" viewBox="0 0 28 28" fill="none" xmlns="http://www.w3.org/2000/svg">
<path d="M27.7394 0.258851C27.8628 0.382473 27.9472 0.539635 27.9821 0.710812C28.0169 0.88199 28.0007 1.05964 27.9355 1.2217L17.5613 27.1597C17.4698 27.3881 17.3172 27.5869 17.1201 27.7341C16.923 27.8814 16.6891 27.9714 16.4441 27.9942C16.1992 28.0171 15.9527 27.9719 15.7317 27.8637C15.5108 27.7554 15.324 27.5883 15.1919 27.3808L9.52608 18.4745L0.620875 12.8079C0.412852 12.676 0.245326 12.4891 0.136785 12.2679C0.0282437 12.0467 -0.0170941 11.7999 0.00577439 11.5545C0.0286429 11.3092 0.118829 11.075 0.26638 10.8777C0.413932 10.6804 0.613113 10.5277 0.841945 10.4365L26.7767 0.0644985C26.9387 -0.000739136 27.1163 -0.0169287 27.2875 0.0179409C27.4587 0.0528104 27.6158 0.137202 27.7394 0.260634V0.258851ZM11.3053 17.9538L16.2277 25.6887L24.6658 4.59165L11.3053 17.9538ZM23.4054 3.33104L2.31099 11.7702L10.0467 16.6914L23.4054 3.33104Z" fill="#002333"/>
</svg>
