<svg width="85" height="98" viewBox="0 0 85 98" fill="none" xmlns="http://www.w3.org/2000/svg">
<path d="M3.90625 91.875C3.11889 91.875 2.36378 92.1977 1.80703 92.772C1.25028 93.3463 0.9375 94.1253 0.9375 94.9375C0.9375 95.7498 1.25028 96.5287 1.80703 97.103C2.36378 97.6774 3.11889 98 3.90625 98H81.0938C81.8811 98 82.6362 97.6774 83.193 97.103C83.7497 96.5287 84.0625 95.7498 84.0625 94.9375C84.0625 94.1253 83.7497 93.3463 83.193 92.772C82.6362 92.1977 81.8811 91.875 81.0938 91.875H72.1875V15.3125C72.1875 12.8758 71.2492 10.539 69.5789 8.81598C67.9087 7.09299 65.6433 6.12502 63.2812 6.12502H60.3125V3.06252C60.3124 2.62416 60.2211 2.19092 60.0448 1.79209C59.8685 1.39326 59.6112 1.03813 59.2903 0.7507C58.9695 0.463272 58.5926 0.250248 58.185 0.126026C57.7775 0.00180392 57.3489 -0.030721 56.9281 0.0306495L15.3656 6.15565C14.6574 6.25895 14.0091 6.62256 13.54 7.1796C13.071 7.73664 12.8126 8.44966 12.8125 9.18752V91.875H3.90625ZM60.3125 12.25H63.2812C64.0686 12.25 64.8237 12.5727 65.3805 13.147C65.9372 13.7213 66.25 14.5003 66.25 15.3125V91.875H60.3125V12.25ZM45.4688 61.25C43.83 61.25 42.5 58.506 42.5 55.125C42.5 51.744 43.83 49 45.4688 49C47.1075 49 48.4375 51.744 48.4375 55.125C48.4375 58.506 47.1075 61.25 45.4688 61.25Z" fill="white"/>
</svg>
