<svg width="33" height="8" viewBox="0 0 33 8" fill="none" xmlns="http://www.w3.org/2000/svg">
<path d="M3.75 7.5C2.75544 7.5 1.80161 7.10491 1.09835 6.40165C0.395088 5.69839 0 4.74456 0 3.75C0 2.75544 0.395088 1.80161 1.09835 1.09835C1.80161 0.395088 2.75544 0 3.75 0C4.74456 0 5.69839 0.395088 6.40165 1.09835C7.10491 1.80161 7.5 2.75544 7.5 3.75C7.5 4.74456 7.10491 5.69839 6.40165 6.40165C5.69839 7.10491 4.74456 7.5 3.75 7.5ZM16.25 7.5C15.2554 7.5 14.3016 7.10491 13.5983 6.40165C12.8951 5.69839 12.5 4.74456 12.5 3.75C12.5 2.75544 12.8951 1.80161 13.5983 1.09835C14.3016 0.395088 15.2554 0 16.25 0C17.2446 0 18.1984 0.395088 18.9017 1.09835C19.6049 1.80161 20 2.75544 20 3.75C20 4.74456 19.6049 5.69839 18.9017 6.40165C18.1984 7.10491 17.2446 7.5 16.25 7.5ZM28.75 7.5C27.7554 7.5 26.8016 7.10491 26.0983 6.40165C25.3951 5.69839 25 4.74456 25 3.75C25 2.75544 25.3951 1.80161 26.0983 1.09835C26.8016 0.395088 27.7554 0 28.75 0C29.7446 0 30.6984 0.395088 31.4017 1.09835C32.1049 1.80161 32.5 2.75544 32.5 3.75C32.5 4.74456 32.1049 5.69839 31.4017 6.40165C30.6984 7.10491 29.7446 7.5 28.75 7.5Z" fill="#B4BEC9"/>
</svg>
