<svg width="176" height="176" viewBox="0 0 176 176" fill="none" xmlns="http://www.w3.org/2000/svg">
<rect width="176" height="176" fill="#159A9C"/>
<path d="M106 49.9062V55.8438H127C127.796 55.8438 128.559 56.1565 129.121 56.7133C129.684 57.27 130 58.0251 130 58.8125C130 59.5999 129.684 60.355 129.121 60.9117C128.559 61.4685 127.796 61.7812 127 61.7812H123.772L118.654 125.075C118.413 128.051 117.047 130.828 114.83 132.852C112.613 134.877 109.707 136.001 106.69 136H69.31C66.2932 136.001 63.3868 134.877 61.1696 132.852C58.9525 130.828 57.5873 128.051 57.346 125.075L52.228 61.7812H49C48.2044 61.7812 47.4413 61.4685 46.8787 60.9117C46.3161 60.355 46 59.5999 46 58.8125C46 58.0251 46.3161 57.27 46.8787 56.7133C47.4413 56.1565 48.2044 55.8438 49 55.8438H70V49.9062C70 47.5442 70.9482 45.2788 72.636 43.6086C74.3239 41.9383 76.6131 41 79 41H97C99.3869 41 101.676 41.9383 103.364 43.6086C105.052 45.2788 106 47.5442 106 49.9062ZM76 49.9062V55.8438H100V49.9062C100 49.1189 99.6839 48.3638 99.1213 47.807C98.5587 47.2503 97.7956 46.9375 97 46.9375H79C78.2044 46.9375 77.4413 47.2503 76.8787 47.807C76.3161 48.3638 76 49.1189 76 49.9062ZM67 70.8597L70 121.328C70.016 121.723 70.1114 122.11 70.2805 122.468C70.4497 122.826 70.6893 123.146 70.9852 123.411C71.2811 123.676 71.6274 123.88 72.0038 124.01C72.3803 124.141 72.7793 124.196 73.1776 124.173C73.5759 124.149 73.9654 124.047 74.3233 123.872C74.6812 123.698 75.0004 123.455 75.2621 123.157C75.5238 122.859 75.7228 122.512 75.8474 122.137C75.9721 121.762 76.0199 121.366 75.988 120.972L72.988 70.5034C72.972 70.1089 72.8766 69.7215 72.7074 69.3639C72.5383 69.0063 72.2988 68.6857 72.0028 68.4209C71.7069 68.156 71.3606 67.9522 70.9842 67.8214C70.6077 67.6907 70.2087 67.6355 69.8104 67.6592C69.4121 67.6829 69.0226 67.785 68.6647 67.9594C68.3068 68.1339 67.9876 68.3773 67.7259 68.6753C67.4642 68.9734 67.2652 69.3201 67.1406 69.6951C67.0159 70.0702 66.9681 70.4661 67 70.8597ZM106.18 67.7247C105.386 67.6793 104.606 67.9477 104.012 68.471C103.418 68.9943 103.058 69.7296 103.012 70.5153L100.012 120.984C99.9862 121.758 100.267 122.511 100.795 123.083C101.322 123.655 102.055 124.001 102.836 124.045C103.618 124.09 104.386 123.831 104.977 123.324C105.568 122.816 105.935 122.1 106 121.328L109 70.8597C109.046 70.074 108.775 69.3024 108.246 68.7145C107.717 68.1266 106.974 67.7706 106.18 67.7247ZM88 67.7188C87.2044 67.7188 86.4413 68.0315 85.8787 68.5883C85.3161 69.145 85 69.9001 85 70.6875V121.156C85 121.944 85.3161 122.699 85.8787 123.255C86.4413 123.812 87.2044 124.125 88 124.125C88.7956 124.125 89.5587 123.812 90.1213 123.255C90.6839 122.699 91 121.944 91 121.156V70.6875C91 69.9001 90.6839 69.145 90.1213 68.5883C89.5587 68.0315 88.7956 67.7188 88 67.7188Z" fill="white"/>
</svg>
