<svg width="322" height="322" viewBox="0 0 322 322" fill="none" xmlns="http://www.w3.org/2000/svg">
<rect width="322" height="322" fill="black"/>
<path fill-rule="evenodd" clip-rule="evenodd" d="M87 195C87 209.912 74.912 222 60 222C45.088 222 33 209.912 33 195C33 180.088 45.088 168 60 168H87V195Z" fill="#36C5F0"/>
<path fill-rule="evenodd" clip-rule="evenodd" d="M100.5 195C100.5 180.088 112.588 168 127.5 168C142.412 168 154.5 180.088 154.5 195V262.5C154.5 277.412 142.412 289.5 127.5 289.5C112.588 289.5 100.5 277.412 100.5 262.5V195Z" fill="#36C5F0"/>
<path fill-rule="evenodd" clip-rule="evenodd" d="M127.5 87C112.588 87 100.5 74.912 100.5 60C100.5 45.088 112.588 33 127.5 33C142.412 33 154.5 45.088 154.5 60V87H127.5Z" fill="#2EB67D"/>
<path fill-rule="evenodd" clip-rule="evenodd" d="M127.5 100.5C142.412 100.5 154.5 112.588 154.5 127.5C154.5 142.412 142.412 154.5 127.5 154.5H60C45.088 154.5 33 142.412 33 127.5C33 112.588 45.088 100.5 60 100.5H127.5Z" fill="#2EB67D"/>
<path fill-rule="evenodd" clip-rule="evenodd" d="M235.5 127.5C235.5 112.588 247.588 100.5 262.5 100.5C277.412 100.5 289.5 112.588 289.5 127.5C289.5 142.412 277.412 154.5 262.5 154.5H235.5V127.5Z" fill="#ECB22E"/>
<path fill-rule="evenodd" clip-rule="evenodd" d="M222 127.5C222 142.412 209.912 154.5 195 154.5C180.088 154.5 168 142.412 168 127.5V60C168 45.088 180.088 33 195 33C209.912 33 222 45.088 222 60V127.5Z" fill="#ECB22E"/>
<path fill-rule="evenodd" clip-rule="evenodd" d="M195 235.5C209.912 235.5 222 247.588 222 262.5C222 277.412 209.912 289.5 195 289.5C180.088 289.5 168 277.412 168 262.5V235.5H195Z" fill="#E01E5A"/>
<path fill-rule="evenodd" clip-rule="evenodd" d="M195 222C180.088 222 168 209.912 168 195C168 180.088 180.088 168 195 168H262.5C277.412 168 289.5 180.088 289.5 195C289.5 209.912 277.412 222 262.5 222H195Z" fill="#E01E5A"/>
<path fill-rule="evenodd" clip-rule="evenodd" d="M87 195C87 209.912 74.912 222 60 222C45.088 222 33 209.912 33 195C33 180.088 45.088 168 60 168H87V195Z" fill="white"/>
<path fill-rule="evenodd" clip-rule="evenodd" d="M100.5 195C100.5 180.088 112.588 168 127.5 168C142.412 168 154.5 180.088 154.5 195V262.5C154.5 277.412 142.412 289.5 127.5 289.5C112.588 289.5 100.5 277.412 100.5 262.5V195Z" fill="white"/>
<path fill-rule="evenodd" clip-rule="evenodd" d="M127.5 87C112.588 87 100.5 74.912 100.5 60C100.5 45.088 112.588 33 127.5 33C142.412 33 154.5 45.088 154.5 60V87H127.5Z" fill="white"/>
<path fill-rule="evenodd" clip-rule="evenodd" d="M127.5 100.5C142.412 100.5 154.5 112.588 154.5 127.5C154.5 142.412 142.412 154.5 127.5 154.5H60C45.088 154.5 33 142.412 33 127.5C33 112.588 45.088 100.5 60 100.5H127.5Z" fill="white"/>
<path fill-rule="evenodd" clip-rule="evenodd" d="M235.5 127.5C235.5 112.588 247.588 100.5 262.5 100.5C277.412 100.5 289.5 112.588 289.5 127.5C289.5 142.412 277.412 154.5 262.5 154.5H235.5V127.5Z" fill="white"/>
<path fill-rule="evenodd" clip-rule="evenodd" d="M222 127.5C222 142.412 209.912 154.5 195 154.5C180.088 154.5 168 142.412 168 127.5V60C168 45.088 180.088 33 195 33C209.912 33 222 45.088 222 60V127.5Z" fill="white"/>
<path fill-rule="evenodd" clip-rule="evenodd" d="M195 235.5C209.912 235.5 222 247.588 222 262.5C222 277.412 209.912 289.5 195 289.5C180.088 289.5 168 277.412 168 262.5V235.5H195Z" fill="white"/>
<path fill-rule="evenodd" clip-rule="evenodd" d="M195 222C180.088 222 168 209.912 168 195C168 180.088 180.088 168 195 168H262.5C277.412 168 289.5 180.088 289.5 195C289.5 209.912 277.412 222 262.5 222H195Z" fill="white"/>
</svg>
