<svg width="29" height="29" viewBox="0 0 29 29" fill="none" xmlns="http://www.w3.org/2000/svg">
<path d="M21.6562 28.875C23.5708 28.875 25.4069 28.1145 26.7607 26.7607C28.1145 25.4069 28.875 23.5708 28.875 21.6562C28.875 19.7417 28.1145 17.9056 26.7607 16.5518C25.4069 15.198 23.5708 14.4375 21.6562 14.4375C19.7417 14.4375 17.9056 15.198 16.5518 16.5518C15.198 17.9056 14.4375 19.7417 14.4375 21.6562C14.4375 23.5708 15.198 25.4069 16.5518 26.7607C17.9056 28.1145 19.7417 28.875 21.6562 28.875ZM22.6875 18.5625V20.625H24.75C25.0235 20.625 25.2858 20.7336 25.4792 20.927C25.6726 21.1204 25.7812 21.3827 25.7812 21.6562C25.7812 21.9298 25.6726 22.1921 25.4792 22.3855C25.2858 22.5789 25.0235 22.6875 24.75 22.6875H22.6875V24.75C22.6875 25.0235 22.5789 25.2858 22.3855 25.4792C22.1921 25.6726 21.9298 25.7812 21.6562 25.7812C21.3827 25.7812 21.1204 25.6726 20.927 25.4792C20.7336 25.2858 20.625 25.0235 20.625 24.75V22.6875H18.5625C18.289 22.6875 18.0267 22.5789 17.8333 22.3855C17.6399 22.1921 17.5312 21.9298 17.5312 21.6562C17.5312 21.3827 17.6399 21.1204 17.8333 20.927C18.0267 20.7336 18.289 20.625 18.5625 20.625H20.625V18.5625C20.625 18.289 20.7336 18.0267 20.927 17.8333C21.1204 17.6399 21.3827 17.5312 21.6562 17.5312C21.9298 17.5312 22.1921 17.6399 22.3855 17.8333C22.5789 18.0267 22.6875 18.289 22.6875 18.5625ZM18.5625 6.1875C18.5625 7.82853 17.9106 9.40234 16.7502 10.5627C15.5898 11.7231 14.016 12.375 12.375 12.375C10.734 12.375 9.16016 11.7231 7.99978 10.5627C6.8394 9.40234 6.1875 7.82853 6.1875 6.1875C6.1875 4.54647 6.8394 2.97266 7.99978 1.81228C9.16016 0.651896 10.734 0 12.375 0C14.016 0 15.5898 0.651896 16.7502 1.81228C17.9106 2.97266 18.5625 4.54647 18.5625 6.1875Z" fill="#B4BEC9"/>
<path d="M0 22.6875C0 24.75 2.0625 24.75 2.0625 24.75H12.903C12.5524 23.7563 12.3738 22.71 12.375 21.6562C12.3736 20.3298 12.6573 19.0185 13.2067 17.8111C13.7561 16.6038 14.5585 15.5285 15.5595 14.6582C14.5963 14.5159 13.5383 14.4375 12.375 14.4375C2.0625 14.4375 0 20.625 0 22.6875Z" fill="#B4BEC9"/>
</svg>
