<svg width="27" height="27" viewBox="0 0 27 27" fill="none" xmlns="http://www.w3.org/2000/svg">
<path d="M2.25234 26.5L2.25161 26.5L2.24139 26.4997C2.23081 26.4994 2.21297 26.4986 2.18894 26.4969C2.14071 26.4934 2.06855 26.4863 1.98064 26.4716C1.80245 26.4419 1.5725 26.3835 1.34861 26.2715C1.12667 26.1606 0.919947 26.002 0.767588 25.7734C0.617315 25.548 0.5 25.225 0.5 24.75C0.5 23.7534 1.01277 21.6318 2.8848 19.7598C4.74218 17.9024 7.98045 16.25 13.5 16.25C19.0196 16.25 22.2578 17.9024 24.1152 19.7598C25.9872 21.6318 26.5 23.7534 26.5 24.75C26.5 25.225 26.3827 25.548 26.2324 25.7734C26.0801 26.002 25.8733 26.1606 25.6514 26.2715C25.4275 26.3835 25.1976 26.4419 25.0194 26.4716C24.9315 26.4863 24.8593 26.4934 24.8111 26.4969C24.787 26.4986 24.7692 26.4994 24.7586 26.4997L24.7484 26.5L24.7477 26.5L24.7484 26.5H2.25156L2.25234 26.5ZM17.9194 11.1694C16.7473 12.3415 15.1576 13 13.5 13C11.8424 13 10.2527 12.3415 9.08058 11.1694C7.90848 9.99731 7.25 8.4076 7.25 6.75C7.25 5.0924 7.90848 3.50269 9.08058 2.33058C10.2527 1.15848 11.8424 0.5 13.5 0.5C15.1576 0.5 16.7473 1.15848 17.9194 2.33058C19.0915 3.50269 19.75 5.0924 19.75 6.75C19.75 8.4076 19.0915 9.99731 17.9194 11.1694Z" fill="white" stroke="white"/>
</svg>
