<svg width="27" height="24" viewBox="0 0 27 24" fill="none" xmlns="http://www.w3.org/2000/svg">
<path d="M3.375 0C2.47989 0 1.62145 0.355579 0.988515 0.988515C0.355579 1.62145 0 2.47989 0 3.375V20.25C0 21.1451 0.355579 22.0035 0.988515 22.6365C1.62145 23.2694 2.47989 23.625 3.375 23.625H23.625C24.5201 23.625 25.3786 23.2694 26.0115 22.6365C26.6444 22.0035 27 21.1451 27 20.25V3.375C27 2.47989 26.6444 1.62145 26.0115 0.988515C25.3786 0.355579 24.5201 0 23.625 0H3.375ZM23.625 1.6875C24.0726 1.6875 24.5018 1.86529 24.8182 2.18176C25.1347 2.49822 25.3125 2.92745 25.3125 3.375V14.3438L18.9388 11.0582C18.7806 10.9789 18.6014 10.9514 18.4267 10.9796C18.2519 11.0077 18.0905 11.0901 17.9651 11.2151L11.7045 17.4757L7.21575 14.4855C7.05368 14.3776 6.85929 14.3291 6.66552 14.3481C6.47176 14.3672 6.29055 14.4527 6.15262 14.5901L1.6875 18.5625V3.375C1.6875 2.92745 1.86529 2.49822 2.18176 2.18176C2.49823 1.86529 2.92745 1.6875 3.375 1.6875H23.625Z" fill="#002333"/>
</svg>
