<svg width="176" height="176" viewBox="0 0 176 176" fill="none" xmlns="http://www.w3.org/2000/svg">
<rect width="176" height="176" fill="#159A9C"/>
<path d="M53.5744 110.502C54.2555 111.186 54.7775 112.011 55.1031 112.92C55.4286 113.829 55.5497 114.798 55.4578 115.759C54.9966 120.206 54.1222 124.601 52.8459 128.886C62.0006 126.766 67.5919 124.311 70.1316 123.025C71.5721 122.295 73.231 122.122 74.7909 122.539C79.2629 123.731 83.8719 124.332 88.5 124.324C114.724 124.324 134.438 105.901 134.438 84.9438C134.438 63.9934 114.724 45.5634 88.5 45.5634C62.2762 45.5634 42.5625 63.9934 42.5625 84.9438C42.5625 94.5789 46.6116 103.518 53.5744 110.502ZM50.3391 136.132C48.7842 136.44 47.2243 136.722 45.66 136.978C44.3475 137.188 43.35 135.823 43.8684 134.603C44.4511 133.228 44.9852 131.834 45.4697 130.422L45.4894 130.356C47.1169 125.63 48.4425 120.196 48.9281 115.135C40.8759 107.062 36 96.4954 36 84.9438C36 59.5697 59.5069 39 88.5 39C117.493 39 141 59.5697 141 84.9438C141 110.318 117.493 130.888 88.5 130.888C83.3002 130.895 78.122 130.219 73.0978 128.879C69.6853 130.605 62.3419 133.749 50.3391 136.132Z" fill="white"/>
</svg>
