<svg width="27" height="24" viewBox="0 0 27 24" fill="none" xmlns="http://www.w3.org/2000/svg">
<path fill-rule="evenodd" clip-rule="evenodd" d="M26.0358 0C26.2915 0 26.5368 0.105351 26.7176 0.292878C26.8984 0.480404 27 0.734745 27 0.999947V10.5994C27 11.256 26.8753 11.9062 26.633 12.5128C26.3907 13.1194 26.0356 13.6705 25.5879 14.1348C25.1402 14.5991 24.6088 14.9673 24.0238 15.2186C23.4389 15.4699 22.812 15.5992 22.1789 15.5992H3.29359L9.7481 22.2908C9.92916 22.4786 10.0309 22.7333 10.0309 22.9988C10.0309 23.2643 9.92916 23.519 9.7481 23.7068C9.56705 23.8945 9.32148 24 9.06543 24C8.80938 24 8.56382 23.8945 8.38276 23.7068L0.283277 15.3072C0.193482 15.2143 0.12224 15.104 0.0736306 14.9825C0.0250212 14.861 0 14.7308 0 14.5992C0 14.4677 0.0250212 14.3375 0.0736306 14.216C0.12224 14.0945 0.193482 13.9842 0.283277 13.8913L7.99707 5.89169C8.17813 5.70393 8.42369 5.59844 8.67974 5.59844C8.93579 5.59844 9.18136 5.70393 9.36241 5.89169C9.54347 6.07945 9.64518 6.33412 9.64518 6.59965C9.64518 6.86519 9.54347 7.11985 9.36241 7.30761L3.29359 13.5993H22.1789C22.9461 13.5993 23.6818 13.2832 24.2243 12.7207C24.7668 12.1581 25.0716 11.3951 25.0716 10.5994V0.999947C25.0716 0.734745 25.1731 0.480404 25.354 0.292878C25.5348 0.105351 25.78 0 26.0358 0Z" fill="#B4BEC9"/>
</svg>
