<svg width="176" height="176" viewBox="0 0 176 176" fill="none" xmlns="http://www.w3.org/2000/svg">
<rect width="176" height="176" fill="#159A9C"/>
<path d="M63.3344 41.9216C63.6321 41.6287 63.9855 41.3966 64.3742 41.2384C64.763 41.0803 65.1795 40.9993 65.6 41H110.4C111.249 41 112.063 41.3325 112.663 41.9244C113.263 42.5164 113.6 43.3192 113.6 44.1563C113.6 48.4488 111.411 51.5671 109.466 53.4924C108.659 54.2815 107.866 54.9064 107.2 55.3736V83.3443L107.699 83.6473C108.998 84.4489 110.746 85.6294 112.506 87.1507C115.904 90.0797 120 94.8267 120 100.969C120 101.806 119.663 102.609 119.063 103.201C118.463 103.792 117.649 104.125 116.8 104.125H91.2V132.531C91.2 134.274 89.7664 142 88 142C86.2336 142 84.8 134.274 84.8 132.531V104.125H59.2C58.3513 104.125 57.5374 103.792 56.9373 103.201C56.3371 102.609 56 101.806 56 100.969C56 94.8267 60.096 90.0797 63.488 87.1507C65.1437 85.7327 66.921 84.4591 68.8 83.3443V55.3736C67.9929 54.8099 67.2351 54.1807 66.5344 53.4924C64.5888 51.5671 62.4 48.4424 62.4 44.1563C62.3992 43.7415 62.4814 43.3307 62.6417 42.9472C62.802 42.5638 63.0374 42.2153 63.3344 41.9216Z" fill="white"/>
</svg>
